{
  "accessors": [
    {
      "bufferView": 2,
      "componentType": 5126,
      "count": 98,
      "max": [
        276.568359375,
        267.7651062011719,
        24.0624942779541
      ],
      "min": [
        -35.181640625,
        -43.9848747253418,
        13.234370231628418
      ],
      "type": "VEC3"
    },
    {
      "bufferView": 2,
      "byteOffset": 1176,
      "componentType": 5126,
      "count": 98,
      "max": [
        0.923275887966156,
        0.923275887966156,
        0.3841376304626465
      ],
      "min": [
        -0.923275887966156,
        -0.923275887966156,
        -0.3841376304626465
      ],
      "type": "VEC3"
    },
    {
      "bufferView": 1,
      "componentType": 5126,
      "count": 98,
      "max": [
        10.365229606628418,
        2.8739919662475586
      ],
      "min": [
        -3.4354209899902344,
        -0.42536211013793945
      ],
      "type": "VEC2"
    },
    {
      "bufferView": 0,
      "componentType": 5125,
      "count": 276,
      "type": "SCALAR"
    },
    {
      "bufferView": 2,
      "byteOffset": 2352,
      "componentType": 5126,
      "count": 3977,
      "max": [
        264.50390625,
        253.65875244140625,
        38.12311935424805
      ],
      "min": [
        -24.428747177124023,
        -20.67506217956543,
        24.704370498657227
      ],
      "type": "VEC3"
    },
    {
      "bufferView": 2,
      "byteOffset": 50076,
      "componentType": 5126,
      "count": 3977,
      "max": [
        0.9699066281318665,
        0.9993317127227783,
        1.0
      ],
      "min": [
        -0.9891860485076904,
        -0.9791709780693054,
        -0.9448263645172119
      ],
      "type": "VEC3"
    },
    {
      "bufferView": 1,
      "byteOffset": 784,
      "componentType": 5126,
      "count": 3977,
      "max": [
        1.303887963294983,
        0.9424368739128113
      ],
      "min": [
        -1.1436409950256348,
        -0.4570046067237854
      ],
      "type": "VEC2"
    },
    {
      "bufferView": 0,
      "byteOffset": 1104,
      "componentType": 5125,
      "count": 11535,
      "type": "SCALAR"
    },
    {
      "bufferView": 2,
      "byteOffset": 97800,
      "componentType": 5126,
      "count": 1964,
      "max": [
        261.4708557128906,
        240.71157836914063,
        36.286869049072266
      ],
      "min": [
        -21.1543025970459,
        0.9882766008377075,
        24.704370498657227
      ],
      "type": "VEC3"
    },
    {
      "bufferView": 2,
      "byteOffset": 121368,
      "componentType": 5126,
      "count": 1964,
      "max": [
        0.9565384984016418,
        0.9977561235427856,
        0.7544792890548706
      ],
      "min": [
        -0.9953319430351257,
        -1.0,
        -0.9448263645172119
      ],
      "type": "VEC3"
    },
    {
      "bufferView": 1,
      "byteOffset": 32600,
      "componentType": 5126,
      "count": 1964,
      "max": [
        19.80801010131836,
        0.46872609853744507
      ],
      "min": [
        -19.846479415893555,
        -6.412065838143008e-14
      ],
      "type": "VEC2"
    },
    {
      "bufferView": 0,
      "byteOffset": 47244,
      "componentType": 5125,
      "count": 3009,
      "type": "SCALAR"
    },
    {
      "bufferView": 2,
      "byteOffset": 144936,
      "componentType": 5126,
      "count": 7107,
      "max": [
        264.50390625,
        253.65875244140625,
        38.12311935424805
      ],
      "min": [
        -24.428747177124023,
        -20.67506217956543,
        24.704370498657227
      ],
      "type": "VEC3"
    },
    {
      "bufferView": 2,
      "byteOffset": 230220,
      "componentType": 5126,
      "count": 7107,
      "max": [
        0.9999901056289673,
        0.9993317127227783,
        0.8867915868759155
      ],
      "min": [
        -0.9999787211418152,
        -0.9999906420707703,
        -0.9074947834014893
      ],
      "type": "VEC3"
    },
    {
      "bufferView": 1,
      "byteOffset": 48312,
      "componentType": 5126,
      "count": 7107,
      "max": [
        20.42392921447754,
        0.8354507088661194
      ],
      "min": [
        -19.700529098510742,
        -3.6319070580853596e-13
      ],
      "type": "VEC2"
    },
    {
      "bufferView": 0,
      "byteOffset": 59280,
      "componentType": 5125,
      "count": 10728,
      "type": "SCALAR"
    },
    {
      "bufferView": 2,
      "byteOffset": 315504,
      "componentType": 5126,
      "count": 26,
      "max": [
        173.82005310058594,
        240.51019287109375,
        33.17937088012695
      ],
      "min": [
        -18.663171768188477,
        -16.73396110534668,
        24.704370498657227
      ],
      "type": "VEC3"
    },
    {
      "bufferView": 2,
      "byteOffset": 315816,
      "componentType": 5126,
      "count": 26,
      "max": [
        5.5379708658502905e-15,
        2.5251629756514954e-15,
        1.0
      ],
      "min": [
        0.0,
        0.0,
        1.0
      ],
      "type": "VEC3"
    },
    {
      "bufferView": 0,
      "byteOffset": 102192,
      "componentType": 5125,
      "count": 48,
      "type": "SCALAR"
    },
    {
      "bufferView": 2,
      "byteOffset": 316128,
      "componentType": 5126,
      "count": 148,
      "max": [
        240.47682189941406,
        120.97550964355469,
        37.34624481201172
      ],
      "min": [
        155.05482482910156,
        27.79448127746582,
        24.704370498657227
      ],
      "type": "VEC3"
    },
    {
      "bufferView": 0,
      "byteOffset": 102384,
      "componentType": 5125,
      "count": 384,
      "type": "SCALAR"
    },
    {
      "bufferView": 2,
      "byteOffset": 317904,
      "componentType": 5126,
      "count": 4845,
      "max": [
        276.568359375,
        267.7651062011719,
        38.12311935424805
      ],
      "min": [
        -35.181640625,
        -43.9848747253418,
        13.234370231628418
      ],
      "type": "VEC3"
    },
    {
      "bufferView": 0,
      "byteOffset": 103920,
      "componentType": 5125,
      "count": 14260,
      "type": "SCALAR"
    }
  ],
  "asset": {
    "extras": {
      "author": "Bagel (https://sketchfab.com/Green_Katydid)",
      "license": "CC-BY-4.0 (http://creativecommons.org/licenses/by/4.0/)",
      "source": "https://sketchfab.com/3d-models/pizza-6e25efa1f80d4dcc8170e9187a31f613",
      "title": "Pizza"
    },
    "generator": "Sketchfab-16.85.0",
    "version": "2.0"
  },
  "bufferViews": [
    {
      "buffer": 0,
      "byteLength": 160960,
      "name": "floatBufferViews",
      "target": 34963
    },
    {
      "buffer": 0,
      "byteLength": 105168,
      "byteOffset": 160960,
      "byteStride": 8,
      "name": "floatBufferViews",
      "target": 34962
    },
    {
      "buffer": 0,
      "byteLength": 376044,
      "byteOffset": 266128,
      "byteStride": 12,
      "name": "floatBufferViews",
      "target": 34962
    }
  ],
  "buffers": [
    {
      "byteLength": 642172,
      "uri": "scene.bin"
    }
  ],
  "extensionsUsed": [
    "KHR_materials_unlit"
  ],
  "images": [
    {
      "uri": "textures/WOOD_baseColor.jpeg"
    },
    {
      "uri": "textures/b7f5d943-425e-4e92-83d1-d856e446e614_baseColor.jpeg"
    },
    {
      "uri": "textures/cd6a87a5-e189-4d63-b62d-22f8e6e4efe5_baseColor.jpeg"
    },
    {
      "uri": "textures/6e6e7a0f-b5f9-48f3-8e92-7ba735b1741a_baseColor.jpeg"
    }
  ],
  "materials": [
    {
      "alphaMode": "BLEND",
      "extensions": {
        "KHR_materials_unlit": {}
      },
      "name": "edge_color000255",
      "pbrMetallicRoughness": {
        "baseColorFactor": [
          1.0,
          1.0,
          1.0,
          0.0
        ],
        "metallicFactor": 0.0
      }
    },
    {
      "extensions": {
        "KHR_materials_unlit": {}
      },
      "name": "WOOD",
      "pbrMetallicRoughness": {
        "baseColorTexture": {
          "index": 0
        },
        "metallicFactor": 0.0
      }
    },
    {
      "extensions": {
        "KHR_materials_unlit": {}
      },
      "name": "b7f5d943-425e-4e92-83d1-d856e446e614",
      "pbrMetallicRoughness": {
        "baseColorTexture": {
          "index": 1
        },
        "metallicFactor": 0.0
      }
    },
    {
      "extensions": {
        "KHR_materials_unlit": {}
      },
      "name": "cd6a87a5-e189-4d63-b62d-22f8e6e4efe5",
      "pbrMetallicRoughness": {
        "baseColorTexture": {
          "index": 2
        },
        "metallicFactor": 0.0
      }
    },
    {
      "extensions": {
        "KHR_materials_unlit": {}
      },
      "name": "6e6e7a0f-b5f9-48f3-8e92-7ba735b1741a",
      "pbrMetallicRoughness": {
        "baseColorTexture": {
          "index": 3
        },
        "metallicFactor": 0.0
      }
    },
    {
      "extensions": {
        "KHR_materials_unlit": {}
      },
      "name": "material",
      "pbrMetallicRoughness": {
        "metallicFactor": 0.0
      }
    },
    {
      "extensions": {
        "KHR_materials_unlit": {}
      },
      "name": "edge_color22716493255",
      "pbrMetallicRoughness": {
        "metallicFactor": 0.0
      }
    }
  ],
  "meshes": [
    {
      "name": "Material2",
      "primitives": [
        {
          "attributes": {
            "NORMAL": 1,
            "POSITION": 0,
            "TEXCOORD_0": 2
          },
          "indices": 3,
          "material": 1,
          "mode": 4
        }
      ]
    },
    {
      "name": "Material2",
      "primitives": [
        {
          "attributes": {
            "NORMAL": 5,
            "POSITION": 4,
            "TEXCOORD_0": 6
          },
          "indices": 7,
          "material": 2,
          "mode": 4
        }
      ]
    },
    {
      "name": "Material2",
      "primitives": [
        {
          "attributes": {
            "NORMAL": 9,
            "POSITION": 8,
            "TEXCOORD_0": 10
          },
          "indices": 11,
          "material": 3,
          "mode": 4
        }
      ]
    },
    {
      "name": "Material2",
      "primitives": [
        {
          "attributes": {
            "NORMAL": 13,
            "POSITION": 12,
            "TEXCOORD_0": 14
          },
          "indices": 15,
          "material": 4,
          "mode": 4
        }
      ]
    },
    {
      "name": "Material2",
      "primitives": [
        {
          "attributes": {
            "NORMAL": 17,
            "POSITION": 16
          },
          "indices": 18,
          "material": 5,
          "mode": 4
        }
      ]
    },
    {
      "name": "Material4",
      "primitives": [
        {
          "attributes": {
            "POSITION": 19
          },
          "indices": 20,
          "material": 6,
          "mode": 1
        }
      ]
    },
    {
      "name": "Material2",
      "primitives": [
        {
          "attributes": {
            "POSITION": 21
          },
          "indices": 22,
          "material": 0,
          "mode": 1
        }
      ]
    }
  ],
  "nodes": [
    {
      "children": [
        1
      ],
      "matrix": [
        1.0,
        0.0,
        0.0,
        0.0,
        0.0,
        2.220446049250313e-16,
        -1.0,
        0.0,
        0.0,
        1.0,
        2.220446049250313e-16,
        0.0,
        0.0,
        0.0,
        0.0,
        1.0
      ],
      "name": "Sketchfab_model"
    },
    {
      "children": [
        2,
        3,
        4,
        5,
        6,
        7,
        8,
        9
      ],
      "name": "Collada visual scene group"
    },
    {
      "mesh": 0,
      "name": "Material2"
    },
    {
      "mesh": 1,
      "name": "Material2"
    },
    {
      "mesh": 2,
      "name": "Material2"
    },
    {
      "mesh": 3,
      "name": "Material2"
    },
    {
      "mesh": 4,
      "name": "Material2"
    },
    {
      "mesh": 5,
      "name": "Material4"
    },
    {
      "mesh": 6,
      "name": "Material2"
    },
    {
      "children": [
        10
      ],
      "name": "SketchUp"
    },
    {
      "children": [
        11
      ],
      "matrix": [
        -0.3550179,
        -0.9348595,
        -2.775558e-17,
        0.0,
        0.8004764,
        -0.3039852,
        0.5165563,
        0.0,
        -0.4829076,
        0.1833868,
        0.8562532,
        0.0,
        -146.2547,
        183.3041,
        433.9207,
        1.0
      ],
      "name": "skp_camera_Last_Saved_SketchUp_View"
    },
    {
      "name": "ID1"
    }
  ],
  "samplers": [
    {
      "magFilter": 9729,
      "minFilter": 9987,
      "wrapS": 10497,
      "wrapT": 10497
    }
  ],
  "scene": 0,
  "scenes": [
    {
      "name": "Sketchfab_Scene",
      "nodes": [
        0
      ]
    }
  ],
  "textures": [
    {
      "sampler": 0,
      "source": 0
    },
    {
      "sampler": 0,
      "source": 1
    },
    {
      "sampler": 0,
      "source": 2
    },
    {
      "sampler": 0,
      "source": 3
    }
  ]
}
